<?xml version="1.0" standalone="no"?>
<!DOCTYPE svg PUBLIC "-//W3C//DTD SVG 20010904//EN"
 "http://www.w3.org/TR/2001/REC-SVG-20010904/DTD/svg10.dtd">
<svg version="1.0" xmlns="http://www.w3.org/2000/svg"
 width="512.000000pt" height="512.000000pt" viewBox="0 0 512.000000 512.000000"
 preserveAspectRatio="xMidYMid meet">
<metadata>
Created by potrace 1.11, written by Peter Selinger 2001-2013
</metadata>
<g transform="translate(0.000000,512.000000) scale(0.100000,-0.100000)"
fill="#000000" stroke="none">
<path d="M1001 4893 c-95 -24 -172 -92 -220 -193 l-26 -55 -1 -2065 c-1 -1621
2 -2075 12 -2113 27 -102 92 -178 194 -226 l55 -26 1545 0 1545 0 56 26 c97
46 173 134 195 224 4 17 8 955 9 2085 1 1545 -1 2066 -10 2100 -27 103 -93
182 -188 226 l-62 29 -1526 1 c-1245 1 -1535 -2 -1578 -13z m3012 -362 l67 -1
-2 -1972 -3 -1973 -1502 0 -1503 0 0 1972 0 1972 28 3 c21 2 2609 1 2915 -1z"/>
<path d="M1248 4382 c-10 -2 -20 -13 -23 -25 -3 -12 -4 -360 -3 -774 3 -681 5
-754 19 -769 15 -15 128 -16 1332 -16 723 0 1324 3 1335 6 11 4 24 14 28 24 4
9 8 355 9 768 1 619 -1 755 -12 770 -13 18 -60 19 -1341 19 -730 1 -1335 -1
-1344 -3z"/>
<path d="M3430 2453 c-41 -34 -46 -65 -45 -254 1 -248 0 -247 280 -244 105 1
197 3 206 3 26 3 59 38 69 73 16 56 12 344 -5 385 -23 56 -51 62 -278 62 -196
0 -198 -1 -227 -25z"/>
<path d="M1302 2448 c-61 -16 -71 -49 -70 -227 0 -172 8 -204 58 -225 19 -8
92 -11 222 -11 267 1 265 -1 263 245 0 83 -6 147 -13 166 -23 54 -39 58 -242
59 -102 1 -200 -2 -218 -7z"/>
<path d="M2049 2448 c-14 -5 -33 -23 -44 -40 -16 -28 -18 -53 -18 -196 l1
-164 31 -31 31 -31 192 -1 c106 -1 205 3 221 8 56 19 65 47 66 212 1 171 -4
200 -43 229 -25 19 -41 21 -220 22 -106 0 -204 -4 -217 -8z"/>
<path d="M2783 2449 c-23 -9 -56 -45 -60 -67 -2 -9 -4 -82 -4 -162 -1 -235 -2
-234 264 -235 274 -2 277 0 278 216 0 74 0 146 0 161 -1 16 -14 42 -30 60
l-29 33 -200 0 c-110 1 -209 -2 -219 -6z"/>
<path d="M3432 1875 c-16 -14 -34 -38 -39 -53 -5 -15 -9 -245 -8 -512 1 -437
3 -488 18 -517 28 -53 43 -57 261 -58 174 0 202 2 228 17 56 35 57 39 58 564
0 300 -3 492 -10 508 -5 15 -19 37 -30 49 -20 21 -29 22 -234 25 l-213 3 -31
-26z"/>
<path d="M1291 1824 c-50 -21 -60 -57 -59 -230 1 -172 12 -206 71 -222 18 -4
113 -8 212 -7 262 1 262 1 260 252 -2 219 2 217 -261 219 -140 1 -199 -2 -223
-12z"/>
<path d="M2042 1823 c-46 -22 -55 -56 -54 -216 0 -78 1 -150 1 -159 1 -10 14
-32 30 -50 l29 -32 196 -1 c286 -1 286 -1 286 240 0 157 -9 192 -53 217 -34
19 -395 20 -435 1z"/>
<path d="M2778 1826 c-51 -26 -58 -51 -59 -206 0 -80 0 -155 0 -167 1 -21 46
-83 59 -82 4 1 9 0 12 -1 3 -1 90 -3 193 -4 290 -3 280 -13 278 301 -1 99 -2
104 -30 135 l-29 33 -201 1 c-127 0 -209 -3 -223 -10z"/>
<path d="M1288 1221 c-49 -24 -56 -50 -56 -228 l0 -161 28 -34 28 -33 202 -2
c119 -1 211 2 223 8 12 6 31 22 41 37 18 23 20 44 21 181 1 175 -8 211 -57
232 -45 18 -392 18 -430 0z"/>
<path d="M2081 1229 c-56 -7 -91 -44 -92 -97 -8 -285 0 -338 59 -360 32 -13
387 -13 419 -1 13 5 32 23 43 41 18 29 20 51 20 179 0 239 -1 241 -239 243
-91 0 -186 -2 -210 -5z"/>
<path d="M2791 1227 c-17 -4 -39 -21 -51 -37 -19 -27 -21 -43 -21 -182 -1
-165 5 -194 46 -226 24 -19 39 -20 223 -20 108 0 206 5 218 10 46 21 54 55 55
227 1 149 0 162 -21 191 -12 16 -33 33 -47 36 -37 10 -367 10 -402 1z"/>
</g>
</svg>
